<svg width="3798" height="589" viewBox="0 0 3798 589" fill="none" xmlns="http://www.w3.org/2000/svg">
<rect x="2" y="94" width="398" height="423" fill="#AB7A5F" stroke="#AB7A5F" stroke-width="2"/>
<mask id="path-2-inside-1_101_11" fill="white">
<path d="M310 104C310 92.7063 307.181 81.5232 301.703 71.0892C296.225 60.6552 288.196 51.1747 278.075 43.1888C267.953 35.203 255.937 28.8683 242.712 24.5464C229.488 20.2245 215.314 18 201 18C186.686 18 172.512 20.2245 159.288 24.5464C146.063 28.8683 134.047 35.203 123.925 43.1888C113.804 51.1747 105.775 60.6552 100.297 71.0892C94.8194 81.5232 92 92.7063 92 104L201 104H310Z"/>
</mask>
<path d="M310 104C310 92.7063 307.181 81.5232 301.703 71.0892C296.225 60.6552 288.196 51.1747 278.075 43.1888C267.953 35.203 255.937 28.8683 242.712 24.5464C229.488 20.2245 215.314 18 201 18C186.686 18 172.512 20.2245 159.288 24.5464C146.063 28.8683 134.047 35.203 123.925 43.1888C113.804 51.1747 105.775 60.6552 100.297 71.0892C94.8194 81.5232 92 92.7063 92 104L201 104H310Z" stroke="#AB7A5F" stroke-width="30" mask="url(#path-2-inside-1_101_11)"/>
<path d="M73.6119 154H400.854V210.887H134.757C107.143 210.887 84.7569 233.273 84.7569 260.887V265.68C84.7569 293.294 107.143 315.68 134.757 315.68H260.509C277.21 315.68 290.749 329.219 290.749 345.92C290.749 362.621 277.21 376.16 260.509 376.16H71.9623C44.0841 376.16 21.5905 353.361 21.9669 325.485L23.6165 203.325C23.9858 175.976 46.261 154 73.6119 154Z" fill="white"/>
<path d="M330.571 457H3.05176e-05V400.113H267.097C294.711 400.113 317.097 377.727 317.097 350.113V345.32C317.097 317.706 294.711 295.32 267.097 295.32H141.345C124.644 295.32 111.105 281.781 111.105 265.08C111.105 248.379 124.644 234.84 141.345 234.84H330.571C358.185 234.84 380.571 257.226 380.571 284.84V407C380.571 434.614 358.185 457 330.571 457Z" fill="white"/>
<path d="M608.308 192.276H500.36L513.372 128.664H807.336L794.325 192.276H686.859L631.921 466H553.852L608.308 192.276ZM886.117 469.855C860.094 469.855 837.123 465.036 817.204 455.398C797.607 445.76 782.346 432.266 771.423 414.918C760.821 397.248 755.52 376.847 755.52 353.715C755.52 325.122 762.267 299.42 775.76 276.61C789.253 253.799 807.887 235.808 831.661 222.636C855.436 209.464 882.262 202.878 912.14 202.878C938.485 202.878 961.456 207.697 981.053 217.335C1000.65 226.973 1015.75 240.627 1026.35 258.297C1037.28 275.646 1042.74 295.886 1042.74 319.018C1042.74 347.611 1035.99 373.313 1022.5 396.123C1009.33 418.934 990.691 436.925 966.596 450.097C942.822 463.269 915.996 469.855 886.117 469.855ZM890.936 407.689C905.394 407.689 918.405 404.155 929.971 397.087C941.537 389.698 950.532 379.578 956.958 366.727C963.383 353.876 966.596 339.097 966.596 322.391C966.596 304.721 961.456 290.746 951.175 280.465C940.894 270.184 926.437 265.044 907.803 265.044C893.025 265.044 879.852 268.739 868.287 276.128C856.721 283.196 847.725 293.155 841.3 306.006C834.874 318.857 831.661 333.636 831.661 350.342C831.661 368.012 836.802 381.987 847.083 392.268C857.685 402.549 872.302 407.689 890.936 407.689ZM1442.87 202.878C1471.14 202.878 1493.63 210.588 1510.33 226.009C1527.04 241.109 1535.39 262.634 1535.39 290.585C1535.39 300.866 1534.27 311.468 1532.02 322.391L1503.59 466H1428.41L1455.88 327.692C1457.16 321.267 1457.8 314.681 1457.8 307.934C1457.8 294.762 1454.27 284.802 1447.2 278.055C1440.46 271.309 1430.34 267.935 1416.84 267.935C1380.54 267.935 1357.89 289.621 1348.89 332.993L1322.39 466H1247.21L1274.68 327.692C1275.96 321.267 1276.61 314.841 1276.61 308.416C1276.61 295.244 1273.07 285.284 1266 278.537C1259.26 271.469 1249.14 267.935 1235.64 267.935C1199.34 267.935 1176.53 289.943 1167.21 333.957L1141.19 466H1066.01L1117.58 206.733H1188.9L1183.12 233.72C1205.61 213.158 1232.75 202.878 1264.56 202.878C1282.55 202.878 1298.45 206.572 1312.27 213.962C1326.4 221.03 1337.01 231.471 1344.07 245.286C1356.6 231.471 1371.22 221.03 1387.93 213.962C1404.63 206.572 1422.95 202.878 1442.87 202.878ZM1768.55 202.878C1788.79 202.878 1807.43 207.536 1824.45 216.853C1841.8 226.17 1855.46 239.663 1865.42 257.333C1875.7 274.682 1880.84 295.244 1880.84 319.018C1880.84 347.611 1874.41 373.473 1861.56 396.605C1849.03 419.415 1831.84 437.407 1810 450.579C1788.15 463.43 1763.89 469.855 1737.23 469.855C1697.71 469.855 1669.76 457.004 1653.38 431.303L1627.84 559.49H1552.66L1623.02 206.733H1694.34L1689.04 232.274C1710.56 212.676 1737.07 202.878 1768.55 202.878ZM1728.55 407.689C1743.33 407.689 1756.51 404.155 1768.07 397.087C1779.64 389.698 1788.63 379.578 1795.06 366.727C1801.48 353.876 1804.7 339.097 1804.7 322.391C1804.7 304.721 1799.4 290.746 1788.79 280.465C1778.51 270.184 1764.06 265.044 1745.42 265.044C1730.96 265.044 1717.95 268.739 1706.39 276.128C1694.82 283.196 1685.83 293.155 1679.4 306.006C1672.97 318.857 1669.76 333.636 1669.76 350.342C1669.76 368.012 1674.9 381.987 1685.18 392.268C1695.46 402.549 1709.92 407.689 1728.55 407.689ZM2185.61 317.09C2185.61 328.977 2184.17 342.149 2181.27 356.607H1982.73C1985.3 391.947 2007.63 409.617 2049.71 409.617C2062.89 409.617 2075.41 407.528 2087.3 403.352C2099.51 399.175 2110.11 393.232 2119.11 385.521L2150.43 435.158C2135.97 446.724 2119.43 455.398 2100.8 461.181C2082.16 466.964 2062.56 469.855 2042 469.855C2015.34 469.855 1991.88 465.197 1971.64 455.88C1951.72 446.242 1936.3 432.588 1925.38 414.918C1914.78 397.248 1909.48 376.847 1909.48 353.715C1909.48 325.122 1915.9 299.42 1928.75 276.61C1941.93 253.478 1960.08 235.487 1983.21 222.636C2006.34 209.464 2032.69 202.878 2062.24 202.878C2087.3 202.878 2108.99 207.536 2127.3 216.853C2145.93 226.17 2160.23 239.503 2170.19 256.851C2180.47 274.2 2185.61 294.28 2185.61 317.09ZM2058.87 259.261C2041.2 259.261 2026.26 264.08 2014.05 273.718C2001.84 283.035 1993.17 296.047 1988.03 312.753H2116.7C2116.7 296.047 2111.4 283.035 2100.8 273.718C2090.51 264.08 2076.54 259.261 2058.87 259.261ZM2323.4 237.575C2334.65 225.367 2348.14 216.532 2363.88 211.07C2379.95 205.608 2398.74 202.878 2420.27 202.878L2406.77 272.273C2397.78 271.63 2392 271.309 2389.42 271.309C2366.61 271.309 2348.3 276.931 2334.49 288.176C2320.99 299.42 2311.84 316.929 2307.02 340.704L2281.96 466H2206.78L2258.35 206.733H2329.67L2323.4 237.575Z" fill="black"/>
<path d="M2996.95 128.664L2818.64 466H2735.27L2705.88 239.021L2583.95 466H2500.1L2457.21 128.664H2534.32L2564.2 365.763L2690.94 128.664H2763.22L2792.14 367.691L2919.36 128.664H2996.95ZM3229.9 317.09C3229.9 328.977 3228.46 342.149 3225.57 356.607H3027.02C3029.59 391.947 3051.92 409.617 3094.01 409.617C3107.18 409.617 3119.71 407.528 3131.59 403.352C3143.8 399.175 3154.41 393.232 3163.4 385.521L3194.73 435.158C3180.27 446.724 3163.72 455.398 3145.09 461.181C3126.45 466.964 3106.86 469.855 3086.3 469.855C3059.63 469.855 3036.18 465.197 3015.94 455.88C2996.02 446.242 2980.6 432.588 2969.67 414.918C2959.07 397.248 2953.77 376.847 2953.77 353.715C2953.77 325.122 2960.2 299.42 2973.05 276.61C2986.22 253.478 3004.37 235.487 3027.5 222.636C3050.63 209.464 3076.98 202.878 3106.54 202.878C3131.59 202.878 3153.28 207.536 3171.59 216.853C3190.23 226.17 3204.52 239.503 3214.48 256.851C3224.76 274.2 3229.9 294.28 3229.9 317.09ZM3103.16 259.261C3085.49 259.261 3070.55 264.08 3058.34 273.718C3046.14 283.035 3037.46 296.047 3032.32 312.753H3160.99C3160.99 296.047 3155.69 283.035 3145.09 273.718C3134.81 264.08 3120.83 259.261 3103.16 259.261ZM3565.76 206.733L3514.2 466H3442.87L3447.69 440.459C3426.17 460.056 3399.66 469.855 3368.18 469.855C3347.94 469.855 3329.3 465.197 3312.28 455.88C3295.25 446.563 3281.6 433.23 3271.31 415.881C3261.36 398.211 3256.38 377.489 3256.38 353.715C3256.38 325.122 3262.64 299.42 3275.17 276.61C3288.02 253.478 3305.37 235.487 3327.22 222.636C3349.06 209.464 3373.16 202.878 3399.5 202.878C3439.34 202.878 3467.45 215.889 3483.84 241.912L3490.58 206.733H3565.76ZM3391.31 407.689C3406.09 407.689 3419.26 404.155 3430.83 397.087C3442.39 389.698 3451.39 379.578 3457.81 366.727C3464.24 353.876 3467.45 339.097 3467.45 322.391C3467.45 304.721 3462.15 290.746 3451.55 280.465C3441.27 270.184 3426.81 265.044 3408.18 265.044C3393.4 265.044 3380.23 268.739 3368.66 276.128C3357.09 283.196 3348.1 293.155 3341.67 306.006C3335.25 318.857 3332.04 333.636 3332.04 350.342C3332.04 368.012 3337.18 381.987 3347.46 392.268C3358.06 402.549 3372.68 407.689 3391.31 407.689ZM3700.42 237.575C3711.67 225.367 3725.16 216.532 3740.9 211.07C3756.96 205.608 3775.76 202.878 3797.28 202.878L3783.79 272.273C3774.8 271.63 3769.01 271.309 3766.44 271.309C3743.63 271.309 3725.32 276.931 3711.5 288.176C3698.01 299.42 3688.86 316.929 3684.04 340.704L3658.98 466H3583.8L3635.36 206.733H3706.69L3700.42 237.575Z" fill="#AB7A5F"/>
</svg>
